<svg width="46" height="50" viewBox="0 0 46 50" fill="none" xmlns="http://www.w3.org/2000/svg">
<path d="M42.1663 14.8706V35.7039C42.1663 37.0853 41.6615 38.41 40.7629 39.3868C39.8643 40.3635 38.6455 40.9123 37.3747 40.9123H8.62467C7.35385 40.9123 6.13507 40.3635 5.23645 39.3868C4.33784 38.41 3.83301 37.0853 3.83301 35.7039V14.8706" stroke="#4C4651" stroke-width="3" stroke-linecap="round" stroke-linejoin="round"/>
<path d="M42.1663 14.8709C42.1663 13.4896 41.6615 12.1648 40.7629 11.1881C39.8643 10.2113 38.6455 9.6626 37.3747 9.6626H8.62467C7.35385 9.6626 6.13507 10.2113 5.23645 11.1881C4.33784 12.1648 3.83301 13.4896 3.83301 14.8709L20.4601 26.1557C21.2216 26.673 22.1016 26.9473 22.9997 26.9473C23.8977 26.9473 24.7777 26.673 25.5393 26.1557L42.1663 14.8709Z" stroke="#4C4651" stroke-width="3" stroke-linecap="round" stroke-linejoin="round"/>
</svg>
