<svg width="60" height="60" viewBox="0 0 60 60" fill="none" xmlns="http://www.w3.org/2000/svg">
<path d="M29.5688 5.33256C37.4641 5.33256 38.3979 5.36369 41.5208 5.50893C44.405 5.6438 45.9716 6.12104 47.0091 6.52565C48.389 7.06513 49.3746 7.69798 50.4121 8.73545C51.4496 9.77291 52.0825 10.7585 52.622 12.1383C53.0266 13.1758 53.5039 14.7424 53.6388 17.6265C53.784 20.7493 53.8151 21.683 53.8151 29.5781C53.8151 37.4732 53.784 38.4069 53.6388 41.5297C53.5039 44.4138 53.0266 45.9804 52.622 47.0179C52.0825 48.3977 51.4496 49.3833 50.4121 50.4207C49.3746 51.4582 48.389 52.0911 47.0091 52.6306C45.9716 53.0352 44.405 53.5124 41.5208 53.6473C38.4083 53.7925 37.4641 53.8236 29.5688 53.8236C21.6734 53.8236 20.7396 53.7925 17.6168 53.6473C14.7325 53.5124 13.1659 53.0352 12.1284 52.6306C10.7485 52.0911 9.76287 51.4582 8.72538 50.4207C7.68787 49.3833 7.055 48.3977 6.5155 47.0179C6.11088 45.9804 5.63362 44.4138 5.49875 41.5297C5.3535 38.4069 5.32237 37.4732 5.32237 29.5781C5.32237 21.683 5.3535 20.7493 5.49875 17.6265C5.63362 14.7424 6.11088 13.1758 6.5155 12.1383C7.055 10.7585 7.68787 9.77291 8.72538 8.73545C9.76287 7.69798 10.7485 7.06513 12.1284 6.52565C13.1659 6.12104 14.7325 5.6438 17.6168 5.50893C20.7396 5.36369 21.6734 5.33256 29.5688 5.33256ZM29.5688 0C21.5385 0 20.5321 0.0311239 17.3781 0.176369C14.2345 0.321614 12.0765 0.819597 10.1986 1.54582C8.2585 2.30317 6.60888 3.30951 4.95925 4.95908C3.32 6.59827 2.30325 8.24784 1.54587 10.1983C0.819625 12.0761 0.31125 14.2236 0.176375 17.3775C0.0311251 20.5314 0 21.5378 0 29.5677C0 37.5977 0.0311251 38.604 0.176375 41.7579C0.321625 44.9014 0.819625 47.0594 1.54587 48.9372C2.30325 50.8772 3.30963 52.5268 4.95925 54.1764C6.5985 55.8156 8.24813 56.8323 10.1986 57.5896C12.0765 58.3158 14.2241 58.8242 17.3781 58.9591C20.5321 59.1043 21.5385 59.1354 29.5688 59.1354C37.599 59.1354 38.6054 59.1043 41.7594 58.9591C44.903 58.8138 47.061 58.3158 48.9389 57.5896C50.879 56.8323 52.5286 55.8259 54.1783 54.1764C55.8279 52.5268 56.8343 50.8876 57.5916 48.9372C58.3179 47.0594 58.8263 44.9118 58.9611 41.7579C59.1064 38.604 59.1375 37.5977 59.1375 29.5677C59.1375 21.5378 59.1064 20.5314 58.9611 17.3775C58.8159 14.234 58.3179 12.0761 57.5916 10.1983C56.8343 8.25821 55.8279 6.60865 54.1783 4.95908C52.5286 3.30951 50.8894 2.30317 48.9389 1.54582C47.061 0.819597 44.9134 0.311239 41.7594 0.176369C38.6054 0.0311239 37.599 0 29.5688 0ZM29.5688 14.3793C21.1858 14.3793 14.3798 21.1746 14.3798 29.5677C14.3798 37.9608 21.1754 44.7562 29.5688 44.7562C37.9621 44.7562 44.7578 37.9608 44.7578 29.5677C44.7578 21.1746 37.9621 14.3793 29.5688 14.3793ZM29.5688 39.4236C24.1219 39.4236 19.7125 35.0144 19.7125 29.5677C19.7125 24.121 24.1219 19.7118 29.5688 19.7118C35.0156 19.7118 39.425 24.121 39.425 29.5677C39.425 35.0144 35.0156 39.4236 29.5688 39.4236ZM45.3491 10.2398C43.3882 10.2398 41.8009 11.8271 41.8009 13.7879C41.8009 15.7487 43.3882 17.336 45.3491 17.336C47.31 17.336 48.8974 15.7487 48.8974 13.7879C48.8974 11.8271 47.31 10.2398 45.3491 10.2398Z" fill="#4C4651"/>
</svg>
