<svg width="33" height="33" viewBox="0 0 33 33" fill="none" xmlns="http://www.w3.org/2000/svg">
<path d="M18.2218 13.9346C18.677 13.4177 19.0555 12.8953 19.5272 12.4553C20.9698 11.0916 22.6812 10.4042 24.6723 10.4207C25.7694 10.4317 26.85 10.5087 27.9086 10.8166C30.3276 11.515 31.7318 13.1867 32.401 15.5513C32.9056 17.3275 32.9934 19.1477 32.9988 20.9789C33.0043 24.8337 32.9879 28.6885 32.9988 32.5489C32.9988 32.9118 32.9001 33.0053 32.5436 32.9998C30.5634 32.9833 28.5778 32.9833 26.5976 32.9998C26.2466 32.9998 26.1753 32.8953 26.1753 32.5654C26.1863 28.8975 26.1917 25.2296 26.1753 21.5563C26.1753 20.6379 26.1149 19.7196 25.8571 18.8232C25.3854 17.179 24.2061 16.3377 22.4838 16.4312C20.1361 16.5576 18.9129 17.7234 18.6112 20.1155C18.5399 20.6874 18.507 21.2593 18.507 21.8367C18.507 25.4056 18.507 28.9745 18.518 32.5434C18.518 32.9008 18.4302 33.0053 18.0682 32.9998C16.0716 32.9833 14.075 32.9833 12.0784 32.9998C11.7602 32.9998 11.667 32.9173 11.667 32.5928C11.678 25.5266 11.678 18.4603 11.667 11.3995C11.667 11.0476 11.7822 10.9706 12.1113 10.9706C14.0092 10.9871 15.9015 10.9871 17.7994 10.9706C18.1505 10.9706 18.2382 11.0806 18.2327 11.4105C18.2108 12.2519 18.2273 13.0987 18.2273 13.9456L18.2218 13.9346ZM7.37209 11.438C7.37209 11.1081 7.32273 10.9541 6.93328 10.9596C4.9257 10.9816 2.91264 10.9761 0.905067 10.9596C0.592412 10.9596 0.52659 11.0641 0.52659 11.3555C0.532075 18.4328 0.532075 25.5101 0.52659 32.5873C0.52659 32.9173 0.619838 32.9943 0.937978 32.9943C2.91813 32.9778 4.89828 32.9778 6.87843 32.9943C7.27884 32.9943 7.37758 32.8788 7.37209 32.4939C7.35564 28.9965 7.36112 25.5046 7.36112 22.0072C7.36112 18.5098 7.36112 14.9574 7.36661 11.438H7.37209ZM3.9658 0C1.7827 0 -0.00547259 1.79819 1.25857e-05 3.98131C0.00549776 6.14243 1.79915 7.92962 3.95483 7.92962C6.13793 7.92962 7.91512 6.14243 7.91512 3.94832C7.90964 1.78169 6.12696 0 3.9658 0Z" fill="#4C4651"/>
</svg>
