<svg width="38" height="42" viewBox="0 0 38 42" fill="none" xmlns="http://www.w3.org/2000/svg">
<path d="M31.2187 27.3385C30.7571 26.8253 30.1338 26.5601 29.4337 26.5601C28.7336 26.5601 28.0411 26.9022 27.4949 27.424L25.7868 29.323C25.2405 29.9303 24.5481 30.2725 23.771 30.2725C23.2248 30.2725 22.7631 30.1014 22.2938 29.8448C20.4319 28.6387 18.1853 27.0819 15.931 24.5841C13.9152 22.343 12.5918 20.1874 11.1992 17.51C10.4991 16.2183 10.7376 14.6615 11.6686 13.6265L13.3766 11.7275C14.4614 10.5214 14.4614 8.70794 13.4535 7.58737L7.32923 0.778411C6.86759 0.256619 6.24439 0 5.54425 0C4.84411 0 4.15166 0.342159 3.6054 0.863951C1.66654 3.01955 0.427829 4.65336 0.120074 8.02363C-0.657007 15.1833 2.28974 21.7356 10.3606 30.6147C19.901 41.2216 27.8103 42 30.0646 42H30.7647C33.6346 41.6578 35.0271 40.4517 37.2045 38.1165C38.2124 36.9104 38.2893 35.097 37.2814 33.9764L31.2341 27.3385H31.2187Z" fill="#4C4651"/>
</svg>
