<svg width="51" height="59" viewBox="0 0 51 59" fill="none" xmlns="http://www.w3.org/2000/svg">
<path d="M50.9949 24.4526V14.127C37.6402 13.5565 37.1713 1.28616 37.1713 0.134839V0H26.7483V40.2754C26.7483 44.8392 23.0953 48.5369 18.5613 48.5318C14.0273 48.5318 10.3692 44.8289 10.3743 40.2651C10.3743 35.7013 14.0737 32.0036 18.6077 32.0088C19.4166 32.0088 20.1894 32.128 21.0086 32.3666V21.7091C10.8174 20.3815 1.47636 27.6109 0.15738 37.8639C-1.16675 48.1169 6.01036 57.5089 16.1964 58.8418C26.3824 60.1746 35.7132 52.94 37.0373 42.6922C37.1816 41.5875 37.1765 40.5607 37.1765 39.4975V19.6865C41.9784 24.0844 51 24.4578 51 24.4578L50.9949 24.4526Z" fill="#4C4651"/>
</svg>
