<svg width="73" height="59" viewBox="0 0 73 59" fill="none" xmlns="http://www.w3.org/2000/svg">
<path d="M73 6.98262C70.287 8.16526 67.3914 8.95159 64.3762 9.33532C67.4795 7.49216 69.8463 4.59847 70.9605 1.10715C68.0712 2.8245 64.8735 4.03231 61.4681 4.7117C58.7236 1.79913 54.8082 0 50.5341 0C42.2502 0 35.5778 6.69325 35.5778 14.89C35.5778 16.0726 35.6785 17.2049 35.924 18.2869C23.4794 17.683 12.4699 11.7509 5.07355 2.71756C3.78313 4.94445 3.02777 7.49846 3.02777 10.2412C3.02777 15.3932 5.69673 19.9665 9.675 22.6149C7.27041 22.5709 4.90989 21.8789 2.91446 20.7843V20.9479C2.91446 28.1821 8.10132 34.1897 14.9059 35.5736C13.6847 35.907 12.3629 36.0643 10.9843 36.0643C10.0275 36.0643 9.05812 36.0077 8.15168 35.8127C10.0905 41.707 15.592 46.0413 22.1386 46.1859C17.0461 50.1491 10.5814 52.5332 3.5817 52.5332C2.35423 52.5332 1.17711 52.4766 0 52.3319C6.62835 56.5844 14.4842 59.0126 22.9569 59.0126C50.4963 59.0126 65.5533 36.3222 65.5533 16.6514C65.5533 15.9908 65.5282 15.3555 65.4967 14.7264C68.4678 12.6316 70.9605 10.0084 73 6.9952V6.98262Z" fill="#4C4651"/>
</svg>
